<svg xmlns="http://www.w3.org/2000/svg" viewBox="87.4 223.9 545.2 272.1" style="enable-background:new 0 0 720 720" xml:space="preserve">
  <style>
    .st1{display:none}.st3,.st4{fill:#d3d3d3}.st6{display:inline}
  </style>
  <g id="NEWS_copy" class="st7">
    <text transform="translate(-611.371 757.919)" class="st6" style="font-family:'DragracesDemoRegular';font-size:52px">Social</text>
    <text transform="translate(-544 517.906)" class="st6" style="font-family:'DragracesDemoRegular';font-size:52px">Pictures</text>
    <text transform="translate(-648 652.773)" class="st6" style="font-family:'DragracesDemoRegular';font-size:52px">News</text>
    <text transform="translate(-750.23 409.563)" style="font-family:'DragracesDemoRegular';font-size:158.9538px;letter-spacing:6">JWS</text>
    <text transform="translate(-720 372.984)"><tspan x="0" y="0" class="st6" style="font-family:'DragracesDemoRegular';font-size:40px;letter-spacing:4">Joe</tspan><tspan x="81.8" y="0" class="st6" style="font-family:'DragracesDemoRegular';font-size:40px;letter-spacing:1"> </tspan><tspan x="96.6" y="0" class="st6" style="font-family:'DragracesDemoRegular';font-size:40px;letter-spacing:4">Steinbring</tspan></text>
    <g class="st6">
      <path class="st3" d="M123.2 404.6h11.6v13.7c0 2.3-.8 4.3-2.5 6-1.7 1.7-3.7 2.5-6 2.5s-4.3-.8-6-2.5c-1.7-1.7-2.5-3.7-2.5-6v-.3h4.6v.3c0 1.1.4 2 1.1 2.7.8.8 1.7 1.1 2.8 1.1s2-.4 2.8-1.1c.8-.8 1.1-1.7 1.1-2.7v-9.1h-2.4l-4.6-4.6zM145.4 406.1c1.6-1 3.4-1.5 5.4-1.5 1.9 0 3.7.5 5.4 1.5 1.6 1 2.9 2.3 3.9 4 1 1.7 1.4 3.6 1.4 5.5 0 2-.5 3.8-1.4 5.5-1 1.7-2.3 3.1-3.9 4-1.6 1-3.4 1.5-5.4 1.5-1.9 0-3.7-.5-5.4-1.5-1.6-1-2.9-2.3-3.9-4-1-1.7-1.4-3.6-1.4-5.6 0-2 .5-3.9 1.4-5.6 1-1.5 2.3-2.9 3.9-3.8zm1 14.1c1.2 1.3 2.6 1.9 4.3 1.9 1.7 0 3.1-.6 4.3-1.9 1.2-1.3 1.8-2.8 1.8-4.6 0-1.8-.6-3.3-1.8-4.6-1.2-1.3-2.6-1.9-4.3-1.9-1.7 0-3.1.6-4.3 1.9-1.2 1.3-1.8 2.8-1.8 4.6.1 1.8.7 3.4 1.8 4.6zM182.8 409.2h-16.1v-4.6h16.1v4.6zm-16 17.5v-13.4h16.1v4.6h-11.5v4.2h11.5v4.6h-16.1zM210.9 413.3c1.8 0 3.4.7 4.7 2 1.3 1.3 2 2.9 2 4.7 0 1.8-.7 3.4-2 4.7-1.3 1.3-2.9 2-4.7 2h-10l5.6-4.6h4.3c.6 0 1.1-.2 1.5-.6.4-.4.6-.9.6-1.5s-.2-1.1-.6-1.5c-.4-.4-.9-.6-1.5-.6h-3.3c-1.8 0-3.4-.7-4.7-2-1.3-1.3-2-2.9-2-4.7 0-1.8.7-3.4 2-4.7 1.3-1.3 2.9-2 4.7-2h10l-5.7 4.6h-4.3c-.6 0-1.1.2-1.5.6-.4.4-.6.9-.6 1.5s.2 1.1.6 1.5c.4.4.9.6 1.5.6h3.4zM222.9 404.6h18.2v4.6h-6.6v17.6H230v-17.6h-7v-4.6zM262.6 409.2h-16.1v-4.6h16.1v4.6zm-16.1 17.5v-13.4h16.1v4.6h-11.5v4.2h11.5v4.6h-16.1zM272.5 426.7h-4.6v-22.1h4.6v22.1zM290.2 404.6h4.6v22.1h-5.4l-7-13.4v13.4h-4.6v-22.1h5.1l7.2 13.5.1-13.5zM316.8 411.3c0 1.6-.6 3.1-1.7 4.4 1.1 1.3 1.7 2.8 1.7 4.4 0 1.8-.7 3.4-2 4.7-1.3 1.3-2.9 2-4.7 2h-10v-13.4h10c.6 0 1.1-.2 1.5-.6s.6-.9.6-1.5-.2-1.1-.6-1.5c-.4-.4-.9-.6-1.5-.6h-10v-4.6h10c1.8 0 3.4.6 4.7 2 1.3 1.2 2 2.8 2 4.7zm-6.7 10.8c.6 0 1.1-.2 1.5-.6.4-.4.6-.9.6-1.5s-.2-1.1-.6-1.5-.9-.6-1.5-.6h-5.4v4.2h5.4zM334.9 417.3l4.2 9.4h-5l-3.9-8.8h-3.4v8.8h-4.6v-13.4h10c.6 0 1.1-.2 1.5-.6.4-.4.6-.9.6-1.5s-.2-1.1-.6-1.5c-.4-.4-.9-.6-1.5-.6h-10v-4.6h10c1.8 0 3.4.6 4.7 2s2 2.9 2 4.7c0 1.3-.4 2.5-1.1 3.6-.8 1.2-1.8 2-2.9 2.5zM348.9 426.7h-4.6v-22.1h4.6v22.1zM366.6 404.6h4.6v22.1h-5.4l-7-13.4v13.4h-4.6v-22.1h5.1l7.2 13.5.1-13.5zM387.2 409.2c-1.7 0-3.1.6-4.3 1.8-1.2 1.2-1.8 2.6-1.8 4.3v.8c0 1.7.6 3.1 1.8 4.3 1.2 1.2 2.6 1.8 4.3 1.8h3.4V418h-5.1v-4.6h9.7v13.4h-8c-1.4 0-2.8-.3-4.1-.8-1.3-.6-2.5-1.3-3.4-2.3-1-1-1.7-2.1-2.3-3.4-.6-1.3-.8-2.7-.8-4.1v-.8c0-1.4.3-2.8.8-4.1.6-1.3 1.3-2.5 2.3-3.4 1-1 2.1-1.7 3.4-2.3 1.3-.6 2.7-.8 4.1-.8h8v4.6h-8zM138.6 293.3h48.6v57.2c0 9.8-3.5 18.2-10.4 25.2-7 7-15.3 10.4-25.2 10.4-9.8 0-18.2-3.5-25.2-10.4-7-7-10.4-15.3-10.4-25.2v-1.2h19.2v1.2c0 4.5 1.6 8.4 4.8 11.5 3.2 3.2 7 4.8 11.6 4.8 4.5 0 8.4-1.6 11.6-4.8 3.2-3.2 4.8-7 4.8-11.5v-38h-10l-19.4-19.2zM303.1 293.3h20.5l-45.3 92.8-17.5-35.9-17.5 35.9-45.3-92.8h20.5l24.8 48.1 6.8-13.2-17-34.8h20.6l7.2 14 7.2-14h20.6l-17.1 34.8 6.8 13.2 24.7-48.1zM369 330c7.8 0 14.4 2.7 19.8 8.2 5.5 5.5 8.2 12.1 8.2 19.8 0 7.8-2.7 14.4-8.2 19.8-5.5 5.5-12.1 8.2-19.8 8.2h-41.7l23.6-19.3H369c2.4 0 4.5-.8 6.2-2.5 1.7-1.7 2.5-3.8 2.5-6.2 0-2.4-.8-4.5-2.5-6.2-1.7-1.7-3.8-2.5-6.2-2.5h-13.7c-7.8 0-14.4-2.7-19.8-8.2-5.5-5.5-8.2-12.1-8.2-19.8 0-7.8 2.7-14.4 8.2-19.8 5.5-5.5 12.1-8.2 19.8-8.2H397l-23.7 19.2h-18c-2.4 0-4.5.8-6.2 2.5-1.7 1.7-2.6 3.8-2.6 6.2 0 2.4.9 4.5 2.6 6.2 1.7 1.7 3.8 2.5 6.2 2.5H369z"/>
    </g>
    <g class="st6">
      <path class="st4" d="M447.3 356.6c1.8 0 3.4.7 4.7 2 1.3 1.3 2 2.9 2 4.7 0 1.8-.7 3.4-2 4.7-1.3 1.3-2.9 2-4.7 2h-9.4v-4h9.4c.8 0 1.4-.3 1.9-.8s.8-1.2.8-1.9c0-.8-.3-1.4-.8-1.9s-1.2-.8-1.9-.8h-2.7c-1.8 0-3.4-.7-4.7-2-1.3-1.3-2-2.9-2-4.7 0-1.8.7-3.4 2-4.7 1.3-1.3 2.9-2 4.7-2h8v3.9h-8a2.732 2.732 0 0 0-2.7 2.7 2.732 2.732 0 0 0 2.7 2.7h2.7zM461.3 348.7c1.7-1 3.6-1.5 5.7-1.5s4 .5 5.7 1.5c1.7 1 3.1 2.4 4.1 4.1 1 1.7 1.5 3.6 1.5 5.7s-.5 4-1.5 5.7c-1 1.7-2.4 3.1-4.1 4.1-1.7 1-3.6 1.5-5.7 1.5s-4-.5-5.7-1.5c-1.7-1-3.1-2.4-4.1-4.1-1-1.7-1.5-3.6-1.5-5.7s.5-4 1.5-5.7c1-1.7 2.3-3.1 4.1-4.1zm.4 15.1c1.5 1.5 3.2 2.2 5.3 2.2 2.1 0 3.8-.7 5.3-2.2 1.5-1.5 2.2-3.2 2.2-5.3 0-2.1-.7-3.8-2.2-5.3-1.5-1.5-3.2-2.2-5.3-2.2-2.1 0-3.8.7-5.3 2.2-1.5 1.5-2.2 3.2-2.2 5.3.1 2.1.8 3.9 2.2 5.3zM497.6 363.8l2.8 2.8c-1 1-2.3 1.9-3.6 2.4-1.4.6-2.9.9-4.4.9-1.5 0-3-.3-4.4-.9-1.4-.6-2.6-1.4-3.6-2.4s-1.8-2.2-2.4-3.6c-.6-1.4-.9-2.9-.9-4.4 0-2.1.5-4 1.5-5.7 1-1.7 2.4-3.1 4.1-4.1 1.7-1 3.6-1.5 5.7-1.5.8 0 1.5.1 2.3.2.7.2 1.5.4 2.1.7.7.3 1.3.6 1.9 1.1.6.4 1.2.9 1.7 1.4l-2.8 2.8c-1.5-1.5-3.2-2.2-5.3-2.2-2.1 0-3.8.7-5.3 2.2-1.5 1.5-2.2 3.2-2.2 5.3 0 2.1.7 3.8 2.2 5.3 1.5 1.5 3.2 2.2 5.3 2.2 2.1-.3 3.9-1 5.3-2.5zM507.6 369.9h-3.9v-22.8h3.9v22.8zM523.4 347.1l8.3 22.8h-4.2l-6.2-17-6.2 17h-4.2l8.3-22.8h4.2zM538.9 366H551v3.9h-16v-22.8h3.9V366zM444.5 294.4c1.8 0 3.4.7 4.7 2 1.3 1.3 2 2.9 2 4.7 0 1.8-.7 3.4-2 4.7-1.3 1.3-2.9 2-4.7 2h-5.4v9.4h-3.9v-13.4h9.4c.8 0 1.4-.3 1.9-.8s.8-1.2.8-1.9c0-.8-.3-1.4-.8-1.9s-1.2-.8-1.9-.8h-9.4v-3.9h9.3zM458.4 317.2h-3.9v-22.8h3.9v22.8zM478.4 311.1l2.8 2.8c-1 1-2.3 1.9-3.6 2.4-1.4.6-2.9.9-4.4.9-1.5 0-3-.3-4.4-.9-1.4-.6-2.6-1.4-3.6-2.4s-1.8-2.2-2.4-3.6c-.6-1.4-.9-2.9-.9-4.4 0-2.1.5-4 1.5-5.7 1-1.7 2.4-3.1 4.1-4.1 1.7-1 3.6-1.5 5.7-1.5.8 0 1.5.1 2.3.2.7.2 1.5.4 2.1.7.7.3 1.3.6 1.9 1.1.6.4 1.2.9 1.7 1.4l-2.8 2.8c-1.5-1.5-3.2-2.2-5.3-2.2-2.1 0-3.8.7-5.3 2.2-1.5 1.5-2.2 3.2-2.2 5.3 0 2.1.7 3.8 2.2 5.3 1.5 1.5 3.2 2.2 5.3 2.2 2.1-.3 3.8-1.1 5.3-2.5zM484.4 294.4h16v3.9h-6.1v18.8h-3.9v-18.8h-6.1v-3.9zM515.8 294.4h3.9v14.7c0 2.2-.8 4.1-2.3 5.7-1.6 1.6-3.4 2.3-5.7 2.3-1.5 0-2.8-.4-4-1.1-1.2-.7-2.2-1.7-2.9-2.9-.7-1.2-1.1-2.6-1.1-4v-14.7h3.9v14.7c0 1.1.4 2.1 1.2 2.9.8.8 1.8 1.2 2.9 1.2 1.1 0 2.1-.4 2.9-1.2.8-.8 1.2-1.8 1.2-2.9v-14.7zM539.1 301.1c0 1.3-.3 2.5-1 3.5-.7 1.1-1.6 1.9-2.7 2.4l3.7 10.1h-4.2l-3.4-9.4h-8.4v-4h9.4c.4 0 .7-.1 1.1-.2.3-.1.6-.3.9-.6.2-.2.4-.5.6-.9.1-.3.2-.7.2-1.1a2.732 2.732 0 0 0-2.7-2.7h-9.4v-3.9h9.4c1.8 0 3.4.7 4.7 2 1.1 1.4 1.8 2.9 1.8 4.8zM558.4 298.4h-16v-3.9h16v3.9zm-2.7 9.4h-13.3v-4h13.3v4zm2.7 9.4h-16v-3.9h16v3.9zM571.1 303.8c1.8 0 3.4.7 4.7 2 1.3 1.3 2 2.9 2 4.7 0 1.8-.7 3.4-2 4.7-1.3 1.3-2.9 2-4.7 2h-9.4v-3.9h9.4c.8 0 1.4-.3 1.9-.8s.8-1.2.8-1.9c0-.8-.3-1.4-.8-1.9s-1.2-.8-1.9-.8h-2.7c-1.8 0-3.4-.7-4.7-2-1.3-1.3-2-2.9-2-4.7 0-1.8.7-3.4 2-4.7 1.3-1.3 2.9-2 4.7-2h8v3.9h-8a2.732 2.732 0 0 0-2.7 2.7 2.732 2.732 0 0 0 2.7 2.7h2.7zM461.8 400.9h3.9v22.8h-3.9l-13.5-22.8h4.6l8.9 15v-15zM485 404.9h-16V401h16v3.9zm-2.7 9.4H469v-4h13.3v4zm2.7 9.4h-16v-3.9h16v3.9zM511.3 400.9h4.1l-5.8 22.8h-4.1l-3.7-14.7-3.7 14.7H494l-5.8-22.8h4.1l3.7 14.7 3.7-14.7h4.1l3.7 14.7 3.8-14.7zM528 410.3c1.8 0 3.4.7 4.7 2 1.3 1.3 2 2.9 2 4.7 0 1.8-.7 3.4-2 4.7-1.3 1.3-2.9 2-4.7 2h-9.4v-3.9h9.4c.8 0 1.4-.3 1.9-.8s.8-1.2.8-1.9c0-.8-.3-1.4-.8-1.9s-1.2-.8-1.9-.8h-2.7c-1.8 0-3.4-.7-4.7-2-1.3-1.3-2-2.9-2-4.7 0-1.8.7-3.4 2-4.7 1.3-1.3 2.9-2 4.7-2h8v3.9h-8a2.732 2.732 0 0 0-2.7 2.7 2.732 2.732 0 0 0 2.7 2.7h2.7z"/>
      <path class="st4" d="M593.7 437.4c-.8-31-1.2-132-1.8-163 .1-5.1-4.8-9.4-10.2-9.5-54.4.1-108.8.1-163.3 0-1.1 0-2.3.1-3.3.4-3.5.7-6.5 3.2-7.5 6.4-.9 3.1-.2 6.3-.4 9.4-.5 31-1.5 132-2.3 163-.7 5.9 5.2 11.1 11.3 10.9 16.2.1 32.6.1 48.8-.1 39.1 0 78.2.2 117.3.1 4.7.2 9.5-2.5 11-6.7 1.2-3.5.4-7.2.4-10.9zm-7.7-9.2c-.1 4.1.3 8.2-.1 12.3-8.8.1-17.6 0-26.4 0v.1H448.4v-.1h-35.3c-.1-5.4-.1-10.9.1-16.2-.3-2.5.1-5-.1-7.5V392h173.1v25.1c-.1 3.8.2 7.5-.2 11.1zM413.1 387c0-16.1.1-35.7.1-54.1h173V387H413.1zm.1-59c0-21.5 0-40.7-.1-49.4 14.5.1 29.1.1 43.6.1H473v-.1h53.4v.1H585.8c-.1 8.5.2 17.1.2 25.5.1 5.1.1 10.3.1 15.4v8.4H413.2zm4.6-57.9c54.6.1 109.3 0 163.9 0 2.7-.2 4.3 2 5.1 4-58.1.1-116.1 0-174.2 0 .4-2.3 2.5-4.4 5.2-4zM583.2 450c-55.6.1-111.2-.1-166.8 0-3 .1-5.7-2.2-6-4.9 56.4-.2 112.8 0 169.2-.1 3.1 0 6.1-.2 9.1.3-.5 2.4-2.7 4.8-5.5 4.7z"/>
      <path class="st4" d="M402 360.7v-17.5l15.2 8.7 15.2 8.8-15.2 8.8-15.2 8.8z"/>
    </g>
  </g>
  <g id="NEWS">
    <path class="st3" d="M123.2 404.6h11.6v13.7c0 2.3-.8 4.3-2.5 6-1.7 1.7-3.7 2.5-6 2.5s-4.3-.8-6-2.5c-1.7-1.7-2.5-3.7-2.5-6v-.3h4.6v.3c0 1.1.4 2 1.1 2.7.8.8 1.7 1.1 2.8 1.1s2-.4 2.8-1.1c.8-.8 1.1-1.7 1.1-2.7v-9.1h-2.4l-4.6-4.6zM145.4 406.1c1.6-1 3.4-1.5 5.4-1.5 1.9 0 3.7.5 5.4 1.5 1.6 1 2.9 2.3 3.9 4 1 1.7 1.4 3.6 1.4 5.5 0 2-.5 3.8-1.4 5.5-1 1.7-2.3 3.1-3.9 4-1.6 1-3.4 1.5-5.4 1.5-1.9 0-3.7-.5-5.4-1.5-1.6-1-2.9-2.3-3.9-4-1-1.7-1.4-3.6-1.4-5.6 0-2 .5-3.9 1.4-5.6 1-1.5 2.3-2.9 3.9-3.8zm1 14.1c1.2 1.3 2.6 1.9 4.3 1.9 1.7 0 3.1-.6 4.3-1.9 1.2-1.3 1.8-2.8 1.8-4.6 0-1.8-.6-3.3-1.8-4.6-1.2-1.3-2.6-1.9-4.3-1.9-1.7 0-3.1.6-4.3 1.9-1.2 1.3-1.8 2.8-1.8 4.6.1 1.8.7 3.4 1.8 4.6zM182.8 409.2h-16.1v-4.6h16.1v4.6zm-16 17.5v-13.4h16.1v4.6h-11.5v4.2h11.5v4.6h-16.1zM210.9 413.3c1.8 0 3.4.7 4.7 2 1.3 1.3 2 2.9 2 4.7 0 1.8-.7 3.4-2 4.7-1.3 1.3-2.9 2-4.7 2h-10l5.6-4.6h4.3c.6 0 1.1-.2 1.5-.6.4-.4.6-.9.6-1.5s-.2-1.1-.6-1.5c-.4-.4-.9-.6-1.5-.6h-3.3c-1.8 0-3.4-.7-4.7-2-1.3-1.3-2-2.9-2-4.7 0-1.8.7-3.4 2-4.7 1.3-1.3 2.9-2 4.7-2h10l-5.7 4.6h-4.3c-.6 0-1.1.2-1.5.6-.4.4-.6.9-.6 1.5s.2 1.1.6 1.5c.4.4.9.6 1.5.6h3.4zM222.9 404.6h18.2v4.6h-6.6v17.6H230v-17.6h-7v-4.6zM262.6 409.2h-16.1v-4.6h16.1v4.6zm-16.1 17.5v-13.4h16.1v4.6h-11.5v4.2h11.5v4.6h-16.1zM272.5 426.7h-4.6v-22.1h4.6v22.1zM290.2 404.6h4.6v22.1h-5.4l-7-13.4v13.4h-4.6v-22.1h5.1l7.2 13.5.1-13.5zM316.8 411.3c0 1.6-.6 3.1-1.7 4.4 1.1 1.3 1.7 2.8 1.7 4.4 0 1.8-.7 3.4-2 4.7-1.3 1.3-2.9 2-4.7 2h-10v-13.4h10c.6 0 1.1-.2 1.5-.6s.6-.9.6-1.5-.2-1.1-.6-1.5c-.4-.4-.9-.6-1.5-.6h-10v-4.6h10c1.8 0 3.4.6 4.7 2 1.3 1.2 2 2.8 2 4.7zm-6.7 10.8c.6 0 1.1-.2 1.5-.6.4-.4.6-.9.6-1.5s-.2-1.1-.6-1.5-.9-.6-1.5-.6h-5.4v4.2h5.4zM334.9 417.3l4.2 9.4h-5l-3.9-8.8h-3.4v8.8h-4.6v-13.4h10c.6 0 1.1-.2 1.5-.6.4-.4.6-.9.6-1.5s-.2-1.1-.6-1.5c-.4-.4-.9-.6-1.5-.6h-10v-4.6h10c1.8 0 3.4.6 4.7 2s2 2.9 2 4.7c0 1.3-.4 2.5-1.1 3.6-.8 1.2-1.8 2-2.9 2.5zM348.9 426.7h-4.6v-22.1h4.6v22.1zM366.6 404.6h4.6v22.1h-5.4l-7-13.4v13.4h-4.6v-22.1h5.1l7.2 13.5.1-13.5zM387.2 409.2c-1.7 0-3.1.6-4.3 1.8-1.2 1.2-1.8 2.6-1.8 4.3v.8c0 1.7.6 3.1 1.8 4.3 1.2 1.2 2.6 1.8 4.3 1.8h3.4V418h-5.1v-4.6h9.7v13.4h-8c-1.4 0-2.8-.3-4.1-.8-1.3-.6-2.5-1.3-3.4-2.3-1-1-1.7-2.1-2.3-3.4-.6-1.3-.8-2.7-.8-4.1v-.8c0-1.4.3-2.8.8-4.1.6-1.3 1.3-2.5 2.3-3.4 1-1 2.1-1.7 3.4-2.3 1.3-.6 2.7-.8 4.1-.8h8v4.6h-8zM138.6 293.3h48.6v57.2c0 9.8-3.5 18.2-10.4 25.2-7 7-15.3 10.4-25.2 10.4-9.8 0-18.2-3.5-25.2-10.4-7-7-10.4-15.3-10.4-25.2v-1.2h19.2v1.2c0 4.5 1.6 8.4 4.8 11.5 3.2 3.2 7 4.8 11.6 4.8 4.5 0 8.4-1.6 11.6-4.8 3.2-3.2 4.8-7 4.8-11.5v-38h-10l-19.4-19.2zM303.1 293.3h20.5l-45.3 92.8-17.5-35.9-17.5 35.9-45.3-92.8h20.5l24.8 48.1 6.8-13.2-17-34.8h20.6l7.2 14 7.2-14h20.6l-17.1 34.8 6.8 13.2 24.7-48.1zM369 330c7.8 0 14.4 2.7 19.8 8.2 5.5 5.5 8.2 12.1 8.2 19.8 0 7.8-2.7 14.4-8.2 19.8-5.5 5.5-12.1 8.2-19.8 8.2h-41.7l23.6-19.3H369c2.4 0 4.5-.8 6.2-2.5 1.7-1.7 2.5-3.8 2.5-6.2 0-2.4-.8-4.5-2.5-6.2-1.7-1.7-3.8-2.5-6.2-2.5h-13.7c-7.8 0-14.4-2.7-19.8-8.2-5.5-5.5-8.2-12.1-8.2-19.8 0-7.8 2.7-14.4 8.2-19.8 5.5-5.5 12.1-8.2 19.8-8.2H397l-23.7 19.2h-18c-2.4 0-4.5.8-6.2 2.5-1.7 1.7-2.6 3.8-2.6 6.2 0 2.4.9 4.5 2.6 6.2 1.7 1.7 3.8 2.5 6.2 2.5H369z"/>
    <path class="st4" d="M447.3 356.6c1.8 0 3.4.7 4.7 2 1.3 1.3 2 2.9 2 4.7 0 1.8-.7 3.4-2 4.7-1.3 1.3-2.9 2-4.7 2h-9.4v-4h9.4c.8 0 1.4-.3 1.9-.8s.8-1.2.8-1.9c0-.8-.3-1.4-.8-1.9s-1.2-.8-1.9-.8h-2.7c-1.8 0-3.4-.7-4.7-2-1.3-1.3-2-2.9-2-4.7 0-1.8.7-3.4 2-4.7 1.3-1.3 2.9-2 4.7-2h8v3.9h-8a2.732 2.732 0 0 0-2.7 2.7 2.732 2.732 0 0 0 2.7 2.7h2.7zM461.3 348.7c1.7-1 3.6-1.5 5.7-1.5s4 .5 5.7 1.5c1.7 1 3.1 2.4 4.1 4.1 1 1.7 1.5 3.6 1.5 5.7s-.5 4-1.5 5.7c-1 1.7-2.4 3.1-4.1 4.1-1.7 1-3.6 1.5-5.7 1.5s-4-.5-5.7-1.5c-1.7-1-3.1-2.4-4.1-4.1-1-1.7-1.5-3.6-1.5-5.7s.5-4 1.5-5.7c1-1.7 2.3-3.1 4.1-4.1zm.4 15.1c1.5 1.5 3.2 2.2 5.3 2.2 2.1 0 3.8-.7 5.3-2.2 1.5-1.5 2.2-3.2 2.2-5.3 0-2.1-.7-3.8-2.2-5.3-1.5-1.5-3.2-2.2-5.3-2.2-2.1 0-3.8.7-5.3 2.2-1.5 1.5-2.2 3.2-2.2 5.3.1 2.1.8 3.9 2.2 5.3zM497.6 363.8l2.8 2.8c-1 1-2.3 1.9-3.6 2.4-1.4.6-2.9.9-4.4.9-1.5 0-3-.3-4.4-.9-1.4-.6-2.6-1.4-3.6-2.4s-1.8-2.2-2.4-3.6c-.6-1.4-.9-2.9-.9-4.4 0-2.1.5-4 1.5-5.7 1-1.7 2.4-3.1 4.1-4.1 1.7-1 3.6-1.5 5.7-1.5.8 0 1.5.1 2.3.2.7.2 1.5.4 2.1.7.7.3 1.3.6 1.9 1.1.6.4 1.2.9 1.7 1.4l-2.8 2.8c-1.5-1.5-3.2-2.2-5.3-2.2-2.1 0-3.8.7-5.3 2.2-1.5 1.5-2.2 3.2-2.2 5.3 0 2.1.7 3.8 2.2 5.3 1.5 1.5 3.2 2.2 5.3 2.2 2.1-.3 3.9-1 5.3-2.5zM507.6 369.9h-3.9v-22.8h3.9v22.8zM523.4 347.1l8.3 22.8h-4.2l-6.2-17-6.2 17h-4.2l8.3-22.8h4.2zM538.9 366H551v3.9h-16v-22.8h3.9V366zM444.5 294.4c1.8 0 3.4.7 4.7 2 1.3 1.3 2 2.9 2 4.7 0 1.8-.7 3.4-2 4.7-1.3 1.3-2.9 2-4.7 2h-5.4v9.4h-3.9v-13.4h9.4c.8 0 1.4-.3 1.9-.8s.8-1.2.8-1.9c0-.8-.3-1.4-.8-1.9s-1.2-.8-1.9-.8h-9.4v-3.9h9.3zM458.4 317.2h-3.9v-22.8h3.9v22.8zM478.4 311.1l2.8 2.8c-1 1-2.3 1.9-3.6 2.4-1.4.6-2.9.9-4.4.9-1.5 0-3-.3-4.4-.9-1.4-.6-2.6-1.4-3.6-2.4s-1.8-2.2-2.4-3.6c-.6-1.4-.9-2.9-.9-4.4 0-2.1.5-4 1.5-5.7 1-1.7 2.4-3.1 4.1-4.1 1.7-1 3.6-1.5 5.7-1.5.8 0 1.5.1 2.3.2.7.2 1.5.4 2.1.7.7.3 1.3.6 1.9 1.1.6.4 1.2.9 1.7 1.4l-2.8 2.8c-1.5-1.5-3.2-2.2-5.3-2.2-2.1 0-3.8.7-5.3 2.2-1.5 1.5-2.2 3.2-2.2 5.3 0 2.1.7 3.8 2.2 5.3 1.5 1.5 3.2 2.2 5.3 2.2 2.1-.3 3.8-1.1 5.3-2.5zM484.4 294.4h16v3.9h-6.1v18.8h-3.9v-18.8h-6.1v-3.9zM515.8 294.4h3.9v14.7c0 2.2-.8 4.1-2.3 5.7-1.6 1.6-3.4 2.3-5.7 2.3-1.5 0-2.8-.4-4-1.1-1.2-.7-2.2-1.7-2.9-2.9-.7-1.2-1.1-2.6-1.1-4v-14.7h3.9v14.7c0 1.1.4 2.1 1.2 2.9.8.8 1.8 1.2 2.9 1.2 1.1 0 2.1-.4 2.9-1.2.8-.8 1.2-1.8 1.2-2.9v-14.7zM539.1 301.1c0 1.3-.3 2.5-1 3.5-.7 1.1-1.6 1.9-2.7 2.4l3.7 10.1h-4.2l-3.4-9.4h-8.4v-4h9.4c.4 0 .7-.1 1.1-.2.3-.1.6-.3.9-.6.2-.2.4-.5.6-.9.1-.3.2-.7.2-1.1a2.732 2.732 0 0 0-2.7-2.7h-9.4v-3.9h9.4c1.8 0 3.4.7 4.7 2 1.1 1.4 1.8 2.9 1.8 4.8zM558.4 298.4h-16v-3.9h16v3.9zm-2.7 9.4h-13.3v-4h13.3v4zm2.7 9.4h-16v-3.9h16v3.9zM571.1 303.8c1.8 0 3.4.7 4.7 2 1.3 1.3 2 2.9 2 4.7 0 1.8-.7 3.4-2 4.7-1.3 1.3-2.9 2-4.7 2h-9.4v-3.9h9.4c.8 0 1.4-.3 1.9-.8s.8-1.2.8-1.9c0-.8-.3-1.4-.8-1.9s-1.2-.8-1.9-.8h-2.7c-1.8 0-3.4-.7-4.7-2-1.3-1.3-2-2.9-2-4.7 0-1.8.7-3.4 2-4.7 1.3-1.3 2.9-2 4.7-2h8v3.9h-8a2.732 2.732 0 0 0-2.7 2.7 2.732 2.732 0 0 0 2.7 2.7h2.7zM461.8 400.9h3.9v22.8h-3.9l-13.5-22.8h4.6l8.9 15v-15zM485 404.9h-16V401h16v3.9zm-2.7 9.4H469v-4h13.3v4zm2.7 9.4h-16v-3.9h16v3.9zM511.3 400.9h4.1l-5.8 22.8h-4.1l-3.7-14.7-3.7 14.7H494l-5.8-22.8h4.1l3.7 14.7 3.7-14.7h4.1l3.7 14.7 3.8-14.7zM528 410.3c1.8 0 3.4.7 4.7 2 1.3 1.3 2 2.9 2 4.7 0 1.8-.7 3.4-2 4.7-1.3 1.3-2.9 2-4.7 2h-9.4v-3.9h9.4c.8 0 1.4-.3 1.9-.8s.8-1.2.8-1.9c0-.8-.3-1.4-.8-1.9s-1.2-.8-1.9-.8h-2.7c-1.8 0-3.4-.7-4.7-2-1.3-1.3-2-2.9-2-4.7 0-1.8.7-3.4 2-4.7 1.3-1.3 2.9-2 4.7-2h8v3.9h-8a2.732 2.732 0 0 0-2.7 2.7 2.732 2.732 0 0 0 2.7 2.7h2.7z"/>
    <path class="st4" d="M593.7 437.4c-.8-31-1.2-132-1.8-163 .1-5.1-4.8-9.4-10.2-9.5-54.4.1-108.8.1-163.3 0-1.1 0-2.3.1-3.3.4-3.5.7-6.5 3.2-7.5 6.4-.9 3.1-.2 6.3-.4 9.4-.5 31-1.5 132-2.3 163-.7 5.9 5.2 11.1 11.3 10.9 16.2.1 32.6.1 48.8-.1 39.1 0 78.2.2 117.3.1 4.7.2 9.5-2.5 11-6.7 1.2-3.5.4-7.2.4-10.9zm-7.7-9.2c-.1 4.1.3 8.2-.1 12.3-8.8.1-17.6 0-26.4 0v.1H448.4v-.1h-35.3c-.1-5.4-.1-10.9.1-16.2-.3-2.5.1-5-.1-7.5V392h173.1v25.1c-.1 3.8.2 7.5-.2 11.1zM413.1 387c0-16.1.1-35.7.1-54.1h173V387H413.1zm.1-59c0-21.5 0-40.7-.1-49.4 14.5.1 29.1.1 43.6.1H473v-.1h53.4v.1H585.8c-.1 8.5.2 17.1.2 25.5.1 5.1.1 10.3.1 15.4v8.4H413.2zm4.6-57.9c54.6.1 109.3 0 163.9 0 2.7-.2 4.3 2 5.1 4-58.1.1-116.1 0-174.2 0 .4-2.3 2.5-4.4 5.2-4zM583.2 450c-55.6.1-111.2-.1-166.8 0-3 .1-5.7-2.2-6-4.9 56.4-.2 112.8 0 169.2-.1 3.1 0 6.1-.2 9.1.3-.5 2.4-2.7 4.8-5.5 4.7z"/>
    <path class="st4" d="M402 360.7v-17.5l15.2 8.7 15.2 8.8-15.2 8.8-15.2 8.8z"/>
  </g>
</svg>
